<svg xmlns="http://www.w3.org/2000/svg" width="16.975" height="17" viewBox="0 0 16.975 17"><g id="phone-call" transform="translate(395 -1)"><g id="Group_2433" data-name="Group 2433" transform="translate(-395 1)"><path id="Path_3440" data-name="Path 3440" d="M13.767,36.954a1.672,1.672,0,0,0-1.213-.556,1.729,1.729,0,0,0-1.227.553l-1.134,1.13c-.093-.05-.187-.1-.276-.144-.129-.065-.251-.126-.355-.19a12.323,12.323,0,0,1-2.953-2.691,7.27,7.27,0,0,1-.969-1.528c.294-.269.567-.549.832-.818.1-.1.2-.2.3-.3a1.646,1.646,0,0,0,0-2.483l-.98-.98c-.111-.111-.226-.226-.334-.341-.215-.222-.441-.452-.675-.667a1.7,1.7,0,0,0-1.2-.527,1.758,1.758,0,0,0-1.22.527l-.007.007-1.22,1.231A2.625,2.625,0,0,0,.359,30.84,6.29,6.29,0,0,0,.818,33.5,15.449,15.449,0,0,0,3.563,38.08a16.885,16.885,0,0,0,5.622,4.4,8.76,8.76,0,0,0,3.157.933c.075,0,.154.007.226.007a2.7,2.7,0,0,0,2.07-.89c0-.007.011-.011.014-.018a8.157,8.157,0,0,1,.628-.649c.154-.147.312-.3.466-.463a1.79,1.79,0,0,0,.542-1.241,1.724,1.724,0,0,0-.553-1.231Zm1.284,3.778s0,0,0,0c-.14.151-.283.287-.438.438a9.435,9.435,0,0,0-.692.718,1.73,1.73,0,0,1-1.349.57c-.054,0-.111,0-.165,0a7.782,7.782,0,0,1-2.8-.84,15.938,15.938,0,0,1-5.3-4.148,14.566,14.566,0,0,1-2.583-4.3,5.123,5.123,0,0,1-.4-2.246,1.647,1.647,0,0,1,.5-1.066L3.047,28.63a.816.816,0,0,1,.545-.255.767.767,0,0,1,.524.251l.011.011c.219.2.427.416.646.642.111.115.226.23.341.348l.98.98a.685.685,0,0,1,0,1.112c-.1.1-.2.208-.309.309-.3.309-.588.6-.9.875-.007.007-.014.011-.018.018a.732.732,0,0,0-.187.814l.011.032a7.864,7.864,0,0,0,1.159,1.891l0,0a13.169,13.169,0,0,0,3.186,2.9,4.9,4.9,0,0,0,.441.24c.129.065.251.126.355.19.014.007.029.018.043.025a.778.778,0,0,0,.355.09.767.767,0,0,0,.545-.248l1.227-1.227a.812.812,0,0,1,.542-.269.731.731,0,0,1,.517.262l.007.007,1.977,1.977A.709.709,0,0,1,15.052,40.732Z" transform="translate(-0.344 -26.423)" fill="#91999e"/><path id="Path_3441" data-name="Path 3441" d="M245.342,86.886a4.618,4.618,0,0,1,3.76,3.76.481.481,0,0,0,.477.4.641.641,0,0,0,.083-.007.485.485,0,0,0,.4-.56,5.584,5.584,0,0,0-4.55-4.55.487.487,0,0,0-.56.395A.479.479,0,0,0,245.342,86.886Z" transform="translate(-236.168 -82.842)" fill="#91999e"/><path id="Path_3442" data-name="Path 3442" d="M256.83,7.5A9.194,9.194,0,0,0,249.338.008a.484.484,0,1,0-.158.954,8.212,8.212,0,0,1,6.7,6.7.481.481,0,0,0,.477.4.641.641,0,0,0,.083-.007A.475.475,0,0,0,256.83,7.5Z" transform="translate(-239.862 0)" fill="#91999e"/></g></g></svg>