<svg xmlns="http://www.w3.org/2000/svg" id="location-pin" width="13.725" height="15.859" viewBox="0 0 13.725 15.859"><path id="Path_3438" data-name="Path 3438" d="M11.715,2.01A6.863,6.863,0,1,0,2.01,11.715l3.646,3.646a1.71,1.71,0,0,0,2.413,0l3.646-3.646a6.862,6.862,0,0,0,0-9.705Zm-.657,9.048L7.412,14.7a.781.781,0,0,1-1.1,0L2.667,11.058a5.933,5.933,0,1,1,8.391,0Zm0,0" transform="translate(0 0)" fill="#91999e"/><path id="Path_3439" data-name="Path 3439" d="M144.737,142.281a2.455,2.455,0,1,0,2.455,2.455A2.458,2.458,0,0,0,144.737,142.281Zm0,3.981a1.526,1.526,0,1,1,1.526-1.526A1.528,1.528,0,0,1,144.737,146.263Zm0,0" transform="translate(-137.874 -137.874)" fill="#91999e"/></svg>