<svg xmlns="http://www.w3.org/2000/svg" width="16.325" height="16.316" viewBox="0 0 16.325 16.316"><g id="clock" transform="translate(0 -0.168)"><g id="Group_2432" data-name="Group 2432" transform="translate(0 0.168)"><path id="Path_3436" data-name="Path 3436" d="M15.674,5.149A8,8,0,0,0,11.327.82,8.023,8.023,0,0,0,8.149.168,7.94,7.94,0,0,0,4.981.82,8.023,8.023,0,0,0,.643,5.149a8.155,8.155,0,0,0,0,6.346,8.041,8.041,0,0,0,4.338,4.338,7.941,7.941,0,0,0,3.169.651,8.026,8.026,0,0,0,3.178-.651A8.015,8.015,0,0,0,15.674,11.5a8.052,8.052,0,0,0,0-6.346Zm-1.3,6.775a7.162,7.162,0,0,1-2.624,2.615,7.03,7.03,0,0,1-3.6.964,6.912,6.912,0,0,1-2.785-.571,7.3,7.3,0,0,1-2.285-1.526,7.254,7.254,0,0,1-1.526-2.294A7.028,7.028,0,0,1,.991,8.317a7.017,7.017,0,0,1,.955-3.588A7.165,7.165,0,0,1,4.561,2.114,6.976,6.976,0,0,1,8.149,1.15a7.03,7.03,0,0,1,3.6.964,7.183,7.183,0,0,1,2.624,2.615,6.976,6.976,0,0,1,.964,3.588A7.044,7.044,0,0,1,14.371,11.923Z" transform="translate(0 -0.168)" fill="#91999e"/><path id="Path_3437" data-name="Path 3437" d="M288.1,116.044v-4.624a.515.515,0,0,0-.518-.5.5.5,0,0,0-.491.5v4.7a.407.407,0,0,1,.018.071.467.467,0,0,0,.134.4l2.669,2.669a.508.508,0,0,0,.687,0,.481.481,0,0,0,0-.7Z" transform="translate(-279.435 -107.967)" fill="#91999e"/></g></g></svg>