<svg xmlns="http://www.w3.org/2000/svg" viewBox="0 0 25 25"><path d="M22.5,11.667,20.2,8.6A1.506,1.506,0,0,0,19,8H16V6.5A1.5,1.5,0,0,0,14.5,5H3.5A1.5,1.5,0,0,0,2,6.5v10A1.5,1.5,0,0,0,3.5,18h.551a2.5,2.5,0,0,0,4.9,0h7.1a2.5,2.5,0,0,0,4.9,0H21.5A1.5,1.5,0,0,0,23,16.5V13.167A2.515,2.515,0,0,0,22.5,11.667ZM3,16.5V6.5A.5.5,0,0,1,3.5,6h11a.5.5,0,0,1,.5.5V17H8.949a2.5,2.5,0,0,0-4.9,0H3.5A.5.5,0,0,1,3,16.5ZM6.5,19A1.5,1.5,0,1,1,8,17.5,1.5,1.5,0,0,1,6.5,19Zm12,0A1.5,1.5,0,1,1,20,17.5,1.5,1.5,0,0,1,18.5,19Zm3-2h-.551a2.5,2.5,0,0,0-4.9,0H16V9h3a.5.5,0,0,1,.4.2l.975,1.3H17.5v2h4.322a1.486,1.486,0,0,1,.178.667V15h-.5a.5.5,0,0,0,0,1H22v.5A.5.5,0,0,1,21.5,17Zm-2.65.15a.469.469,0,0,1,.15.35.433.433,0,0,1-.04.19.355.355,0,0,1-.11.16.483.483,0,0,1-.7,0,.355.355,0,0,1-.11-.16A.433.433,0,0,1,18,17.5a.469.469,0,0,1,.15-.35A.5.5,0,0,1,18.85,17.15Zm-11.89.16a.471.471,0,0,1,0,.38.533.533,0,0,1-.27.27A.433.433,0,0,1,6.5,18a.406.406,0,0,1-.19-.04.355.355,0,0,1-.16-.11.483.483,0,0,1,0-.7.5.5,0,0,1,.54-.11.533.533,0,0,1,.27.27ZM9.5,12.5v-3A.5.5,0,0,1,10,9h1a.5.5,0,0,1,0,1h-.5v.5H11a.5.5,0,0,1,0,1h-.5V12H11a.5.5,0,0,1,0,1H10A.5.5,0,0,1,9.5,12.5Zm2.5,0v-3a.5.5,0,0,1,.5-.5h1a.5.5,0,0,1,0,1H13v.5h.5a.5.5,0,0,1,0,1H13V12h.5a.5.5,0,0,1,0,1h-1A.5.5,0,0,1,12,12.5Zm-8,0v-3A.5.5,0,0,1,4.5,9h1a.5.5,0,0,1,0,1H5v.5h.5a.5.5,0,0,1,0,1H5v1a.5.5,0,0,1-1,0Zm3.016.5a.5.5,0,0,0,.5-.5v-.85l.537,1.074a.5.5,0,0,0,.894-.448l-.5-.992A1.249,1.249,0,0,0,7.75,9H7.016a.5.5,0,0,0-.5.5v3A.5.5,0,0,0,7.016,13ZM8,10.25a.25.25,0,0,1-.25.25.5.5,0,0,0-.234.061V10H7.75A.25.25,0,0,1,8,10.25Z" data-name="Free Shipping"/></svg>