<svg xmlns="http://www.w3.org/2000/svg" viewBox="0 0 512 512"><g data-name="New sticker"><path fill="none" stroke="#202020" stroke-linecap="round" stroke-linejoin="round" stroke-width="15" d="M428.93,84.77l16.58,40.53,32,29.91a63.75,63.75,0,0,1,18.52,61l-4.85,20.94,8.17,19.93a63.54,63.54,0,0,1-8.65,63.06l-26.76,34.5L454,397.44A63.63,63.63,0,0,1,410.55,444l-20.67,6.37-13.16,16.9a63.79,63.79,0,0,1-59,24.13l-43.22-5.92-42,12.77a63.6,63.6,0,0,1-62-14.47l-15.71-14.68-21.44-2.91a63.29,63.29,0,0,1-50.24-39.05L66.49,386.6l-32-29.91A63.59,63.59,0,0,1,15.85,295.8l4.85-21.16-8-19.82a63.54,63.54,0,0,1,8.65-63.07l26.76-34.5L58,114.46a63.63,63.63,0,0,1,43.49-46.54l20.67-6.37,13.16-16.9a63.79,63.79,0,0,1,59-24.13l43.45,5.91,41.68-12.65a63.74,63.74,0,0,1,62.12,14.36l15.82,14.79,21.21,2.91A63.7,63.7,0,0,1,428.93,84.77Z"/><path fill="#20201f" d="M183.61 414.38L96.7 333.16l16.87-18.05L171.8 327.5a327.27 327.27 0 0 1 43 12.41l.24-.26c-12.57-9.81-24.15-19.91-37.43-32.32L147.31 279 161 264.3 248 345.52l-15.3 16.38-59.37-13c-14.72-3.37-30.85-7.57-44.62-12.47l-.23.51c11.82 9.84 23.42 20.43 37.73 33.81l31.07 29zM271.94 242.57l-30.61 32.75 25.53 23.86 34.22-36.62 13 12.17-49 52.48L178.16 246l47.24-50.54 13 12.17L206 242.31l22.44 21L259 230.52zM341.22 245.73L234.43 185.78l15.79-16.89 47.17 28.62C310 205.2 323 213.5 333 220.16l.24-.26c-7.83-10-15.85-22.06-24.52-34.76L278.17 139l15.54-16.63 48 28.72c12.36 7.45 23.72 14.68 34.34 22.19l.24-.26c-8.1-10.46-16.09-21.81-24.5-34L321 93.2 336 77.09l65.09 104.56-15.91 17-49.31-29.17a338.87 338.87 0 0 1-32.05-21l-.24.26c7.84 10.22 14.65 19.73 22.17 31.59l31.47 48.26z"/><circle cx="118.72" cy="133.1" r="23.62" fill="none" stroke="#202020" stroke-linecap="round" stroke-linejoin="round" stroke-width="15"/></g></svg>